PathFileType	4	(X/Y/Z)	Patient5_TMGait_0pt45_1_right_08.trc.trc
DataRate	CameraRate	NumFrames	NumMarkers	Units	OrigDataRate	OrigDataStartFrame	OrigNumFrames
57.377049180328	57.377049180328	5	32	mm	57.377049180328	71	       141
Frame#	Time	R.ASIS			L.ASIS			Chest			R.Shoulder			Neck			L.Shoulder			L.Elbow			L.Wrist			R.Elbow			R.Wrist			L.Thigh.Superior			L.Thigh.Lateral			L.Thigh.Inferior			L.Patella			L.Shank.Superior			L.Shank.Lateral			L.Shank.Inferior			L.Heel			L.Midfoot.Lateral			L.Midfoot.Superior			L.Toe			R.Thigh.Superior			R.Thigh.Lateral			R.Thigh.Inferior			R.Patella			R.Shank.Superior			R.Shank.Lateral			R.Shank.Inferior			R.Heel			R.Midfoot.Lateral			R.Midfoot.Superior			R.Toe			
		X1	Y1	Z1	X2	Y2	Z2	X3	Y3	Z3	X4	Y4	Z4	X5	Y5	Z5	X6	Y6	Z6	X7	Y7	Z7	X8	Y8	Z8	X9	Y9	Z9	X10	Y10	Z10	X11	Y11	Z11	X12	Y12	Z12	X13	Y13	Z13	X14	Y14	Z14	X15	Y15	Z15	X16	Y16	Z16	X17	Y17	Z17	X18	Y18	Z18	X19	Y19	Z19	X20	Y20	Z20	X21	Y21	Z21	X22	Y22	Z22	X23	Y23	Z23	X24	Y24	Z24	X25	Y25	Z25	X26	Y26	Z26	X27	Y27	Z27	X28	Y28	Z28	X29	Y29	Z29	X30	Y30	Z30	X31	Y31	Z31	X32	Y32	Z32	

71	14.070000000000	1052.405773065228	979.022746732574	574.011681901627	1090.936219290450	959.712640468833	340.617130252951	1154.840922090693	1433.363729398685	465.374223278336	1039.869881374151	1500.190070116061	619.774937521265	1035.961545989104	1559.538711584698	434.180687192619	1114.151435488445	1501.775123126228	261.882398235842	1021.355030672420	1195.499618274145	121.212665894697	1114.552474977963	921.421969810829	126.087326310740	941.237225315107	1186.935497198670	762.104758383189	1158.849469516369	998.082509214623	724.258494177436	1143.033755821603	755.347769388975	340.124700950271	1092.480773310626	671.987673239511	293.376915471492	1162.952920943530	632.697587838321	374.091508111100	1184.714852661373	518.790179089166	389.106570584294	1148.754957749141	409.612302587395	402.418004427838	1107.871570965450	332.275279193685	314.549191936119	1130.325185859186	283.312241333800	407.504659437463	1024.449510246336	49.424226367210	399.545319360353	1116.806749178479	27.446471206492	344.048552247753	1210.251307846778	89.543757826005	395.990057276815	1317.690766129173	46.086651202000	405.610898891853	1040.369332303469	740.832366726950	599.707112651842	936.694333847963	675.810412992375	641.361037065770	1020.663091637077	609.069991591115	585.881045813132	998.852550091998	506.684979815772	615.000527864593	922.055277930747	418.201464981247	565.417731807349	820.052363609524	382.848404911032	633.870233233923	852.324214828670	296.830579360832	555.993651443352	652.298264637029	128.879659769227	504.427756334896	714.212019426733	66.843382706457	572.998077038918	834.769650854948	97.467073307910	562.379008129235	917.718466861448	41.473141361792	553.182532265992	
72	14.087428571429	1052.078199604127	981.393002866293	571.078299427885	1093.274898820017	960.410381160638	338.322284804056	1155.902099685804	1434.758139166789	464.009274689880	1038.010859498771	1501.890201392351	615.998364436419	1037.843051598204	1561.137131890001	430.393271773176	1119.735361022737	1503.244953732852	259.866746968438	1030.933827029985	1196.920340136945	116.939971285856	1125.944493609152	923.579547656991	124.031274972285	936.446841238883	1189.292660213499	757.454989818247	1153.796819090674	999.647491333572	722.791640690889	1142.833781117956	754.898241463211	337.987251351143	1091.612801608033	672.167966840782	290.754152486821	1160.924674475790	631.972538900234	371.874581683886	1181.052337703813	517.894460857128	386.852219526317	1144.127747954231	409.133522174329	400.441121919826	1102.515208032469	331.731982790605	313.056778662564	1124.487417787838	283.092350716447	406.097633949915	1016.816643434916	49.418235004342	399.318129977357	1109.177374377369	27.379622532811	343.856230380985	1202.635074231904	89.502197360563	395.833456569595	1310.087791637800	46.025111105445	405.584472579522	1045.147472585492	744.828016148747	602.327648106883	943.620281958954	677.735113885355	642.989689551361	1030.086884274658	612.005903365946	589.929425139978	1009.449592653842	508.433045878184	620.013509556904	930.402876667127	419.961392319799	569.725880870687	827.136884165365	387.224746340235	638.099054423689	856.676763126918	300.862591411103	559.609021449759	651.625902231963	142.664782982369	507.470040277787	710.220945712844	76.088979509622	574.555600445367	832.198919737538	100.943210721896	564.884285637892	911.846280832858	41.217967630233	554.041527882004	
73	14.104857142857	1051.452949936289	983.572793583102	568.308248101619	1095.131674007747	960.987163799501	336.048663214657	1156.564400390701	1435.908470805652	462.613828285878	1035.883080258329	1503.323037873820	612.218632581354	1039.402916613934	1562.536686690760	426.692514053708	1124.878847853606	1504.512438223852	257.964162030561	1040.555644009679	1198.096282754830	112.787010945756	1137.293652869248	925.489774911071	122.089665431710	931.698658689773	1191.189031420823	752.602137713800	1148.898135071220	1000.927124986897	721.362444145656	1142.299246467864	754.597831847030	336.065092523176	1090.537400033341	672.432312680727	288.227288190891	1158.760601536059	631.334903990387	369.660971277098	1177.289539420852	516.979710990617	384.390090773095	1139.404754322357	408.654364263004	398.298460535719	1096.882086850835	331.225372484618	311.438592420150	1118.590743486804	282.872100519822	404.560534282222	1009.091728227023	49.450796533547	399.070240684105	1101.453253171697	27.289720833600	343.657306206204	1194.963618328214	89.404216409750	395.657059588010	1302.376505323046	45.906399530374	405.608167863194	1049.848916544358	749.193098076157	605.583834436992	950.852642794535	679.763729765048	644.950941679094	1039.711569972581	615.255271038669	594.054677127572	1020.401009291030	510.552541842294	625.048232671854	939.331174839004	422.225718791465	574.233465772620	834.955711366204	392.023162233890	642.677003329079	861.652829821682	305.466532553208	563.383499974619	652.107360850736	157.572457762837	510.886253934772	706.905026305787	86.462426612496	576.282326457376	830.099144026420	105.183777246028	567.519655021099	906.175791257235	40.899966073048	554.995065306586	
74	14.122285714286	1050.628240304006	985.681114728853	565.633949115522	1096.506130301166	961.498890089660	333.797066123566	1156.840254003832	1436.899314069116	461.154870746312	1033.539384800181	1504.577012713431	608.452967584493	1040.636879937056	1563.798048339570	423.081772427871	1129.474953132973	1505.625470962523	256.134949101621	1050.040271771211	1199.039395438318	108.847660207257	1148.521009375686	927.191056088953	120.221202574063	926.901890230293	1192.691820378016	747.463615986420	1144.103377343446	1001.988807426717	719.965793578772	1141.498067813318	754.383353543769	334.134719673255	1089.149223844742	672.728013961322	285.787844590154	1156.498098175417	630.780534298830	367.365830110967	1173.490727057537	516.065806568483	381.766158644649	1134.641270963418	408.194135056192	396.067868584507	1091.019632071916	330.799988548646	309.746742665713	1112.662991578320	282.671445035951	402.953193171990	1001.287451539162	49.510619245000	398.805963947506	1093.642665531928	27.191503338897	343.446373899246	1187.235679351529	89.281148001817	395.441397132936	1294.569892495178	45.761390622720	405.629707837035	1054.377198815974	753.881196936217	609.045204734078	958.148841498844	682.021124429940	647.113032189285	1049.234725615136	618.863832102284	598.048604009901	1031.389213851211	513.139930575334	629.930941829651	948.532794783763	425.044368472031	578.774053579827	843.197403032316	397.271236185311	647.414596405884	867.050240942004	310.616848883963	567.203130382916	653.662267854262	173.266892832355	514.595929286281	704.258937386959	97.738309067004	578.148972089479	828.444473109899	110.088504169068	570.253311937302	900.667789666113	40.536682851600	556.037244618651	
75	14.139714285714	1049.759451191192	987.840384581651	563.066249423634	1097.413027581499	961.992723316328	331.561930823420	1156.759230246005	1437.819923033088	459.607118434708	1031.022640476792	1505.736974906267	604.711789698517	1041.551765874415	1564.981506115785	419.563511649495	1133.447297090871	1506.646377596442	254.337712813951	1059.172922703872	1199.787587022997	105.195420761710	1159.545464604295	928.763002041555	118.387647885375	922.002626240576	1193.893985786760	742.013656486446	1139.372959357558	1002.926627849240	718.552837249142	1140.446894868173	754.166844837449	331.999937445021	1087.318757920251	672.999667961165	283.413443062810	1154.108973395465	630.274589020849	364.912482873786	1169.645050866337	515.164774790328	379.018088040354	1129.834488409455	407.764315469046	393.819493709799	1084.939367100684	330.476954005262	308.040830711408	1106.704151098626	282.503593012303	401.336115582780	993.426957466396	49.586853878259	398.536213469932	1085.767940795325	27.097435936221	343.230077345621	1179.459491522811	89.160865629031	395.185745057878	1286.693017992040	45.623690792502	405.620786382911	1058.694725035491	758.747842708243	612.127838672007	965.271035364241	684.591207197799	649.334137276260	1058.365504725219	622.822614120587	601.729756152662	1042.087192962713	516.225609247505	634.514705085837	957.665897039888	428.388860302388	583.188460962102	851.520180892658	402.918394044219	652.129135432435	872.642705670967	316.193636677718	570.976643212501	656.120675072815	189.179141116437	518.496500068676	702.288977830441	109.501865106335	580.173005942405	827.236529791857	115.456278714420	573.095759650308	895.392180661404	40.184088439486	557.256544545848	
